#!OML:ASF H:\LiuWeirdWalks\Patient Classification 1\Patient 1\Session 1\male.ASF
:FULLY-SPECIFIED
:DEGREES
1605
root 0.77755 17.8405 19.6839 -0.247626 5.16409 -8.91476
lowerback 1.71462 1.55407 5.40142
upperback 0.314407 2.20045 3.62453
thorax -0.578526 1.09439 0.653734
lowerneck -20.033 2.71879 7.32416
upperneck 24.6882 3.74549 -7.96024
head 11.6883 1.37327 -3.60747
rclavicle -1.38404e-014 1.61016e-014
rhumerus -34.9069 0.457727 -83.0242
rradius 33.1273
rwrist -7.61157
rhand -16.3051 -3.61977
rfingers 7.12502
rthumb 9.90578 -33.3667
lclavicle -1.38404e-014 1.61016e-014
lhumerus -45.9102 10.7849 75.2812
lradius 35.2732
lwrist 11.0407
lhand -11.7376 -2.96105
lfingers 7.12502
lthumb 14.3099 26.5258
rfemur 10.6048 -1.83227 35.5689
rtibia 10.6613
rfoot -10.8091 -19.7982
rtoes -3.48003
lfemur -29.1253 -2.58737 -9.18359
ltibia 22.5511
lfoot -14.5643 13.2491
ltoes -18.3055
1606
root 0.790313 17.8314 19.7349 -0.126664 5.11336 -8.96456
lowerback 1.70522 1.86953 5.61917
upperback 0.318906 2.62335 3.59944
thorax -0.545913 1.30576 0.500721
lowerneck -20.4495 2.40563 6.75072
upperneck 24.8298 3.38723 -7.6622
head 11.7745 1.18732 -3.45881
rclavicle 2.76062e-014 -7.95139e-016
rhumerus -34.8833 -0.142323 -82.6567
rradius 33.2509
rwrist -7.63058
rhand -16.2607 -3.6032
rfingers 7.12502
rthumb 9.94867 -33.3481
lclavicle 2.76062e-014 -7.95139e-016
lhumerus -45.7811 10.4606 75.5051
lradius 35.1312
lwrist 10.9792
lhand -11.7216 -2.91896
lfingers 7.12502
lthumb 14.3252 26.5668
rfemur 10.7132 -1.76232 35.5955
rtibia 10.5789
rfoot -10.8785 -19.8092
rtoes -3.54593
lfemur -29 -2.59114 -9.15975
ltibia 22.5756
lfoot -14.8062 13.4007
ltoes -18.2674
1607
root 0.803362 17.8227 19.7872 0.00126609 5.0543 -9.00084
lowerback 1.69783 2.22435 5.85818
upperback 0.316185 3.09937 3.55952
thorax -0.514468 1.54347 0.320812
lowerneck -20.8524 2.03559 6.10115
upperneck 24.9629 2.96742 -7.32319
head 11.8515 0.972641 -3.29198
rclavicle 1.63563e-014 2.04748e-014
rhumerus -34.8983 -0.845519 -82.2351
rradius 33.3859
rwrist -7.65975
rhand -16.2524 -3.58499
rfingers 7.12502
rthumb 9.95668 -33.3295
lclavicle 1.63563e-014 2.04748e-014
lhumerus -45.6393 10.0189 75.7937
lradius 35.0215
lwrist 10.9299
lhand -11.6837 -2.77845
lfingers 7.12502
lthumb 14.3618 26.7048
rfemur 10.8377 -1.67014 35.61
rtibia 10.4661
rfoot -10.9323 -19.8262
rtoes -3.61521
lfemur -28.8763 -2.55896 -9.15671
ltibia 22.5901
lfoot -14.992 13.5412
ltoes -18.2921
1608
root 0.816305 17.8151 19.8403 0.135093 4.99205 -9.02292
lowerback 1.71134 2.52719 6.0292
upperback 0.32768 3.50579 3.52267
thorax -0.482681 1.74676 0.183059
lowerneck -21.3187 1.73622 5.56924
upperneck 25.076 2.62927 -7.05567
head 11.9478 0.796169 -3.15995
rclavicle -9.74666e-015 -4.87022e-014
rhumerus -34.855 -1.43184 -81.8923
rradius 33.5115
rwrist -7.65584
rhand -16.2744 -3.54596
rfingers 7.12502
rthumb 9.9354 -33.2915
lclavicle -9.74666e-015 -4.87022e-014
lhumerus -45.5107 9.70086 76.0047
lradius 34.9289
lwrist 10.8837
lhand -11.6387 -2.6052
lfingers 7.12502
lthumb 14.4052 26.8749
rfemur 10.9862 -1.55314 35.6147
rtibia 10.3006
rfoot -10.9515 -19.851
rtoes -3.68392
lfemur -28.7712 -2.49556 -9.17333
ltibia 22.5978
lfoot -15.087 13.6676
ltoes -18.3963
1609
root 0.829698 17.8097 19.8943 0.289757 4.94595 -8.99415
lowerback 1.68948 2.66023 6.01952
upperback 0.294162 3.6827 3.48456
thorax -0.495922 1.83428 0.147178
lowerneck -21.498 1.63217 5.38733
upperneck 25.0718 2.50854 -6.96217
head 11.9684 0.733636 -3.11399
rclavicle 4.47514e-014 3.8763e-014
rhumerus -34.8288 -1.61066 -81.8174
rradius 33.6033
rwrist -7.61224
rhand -16.2908 -3.51122
rfingers 7.12502
rthumb 9.91961 -33.2575
lclavicle 4.47514e-014 3.8763e-014
lhumerus -45.6518 9.7224 75.9179
lradius 34.9132
lwrist 10.8638
lhand -11.5807 -2.43007
lfingers 7.12502
lthumb 14.4611 27.046
rfemur 11.1525 -1.43904 35.5619
rtibia 10.0685
rfoot -10.936 -19.865
rtoes -3.75925
lfemur -28.7119 -2.40923 -9.25403
ltibia 22.601
lfoot -15.1057 13.7452
ltoes -18.5765
1610
root 0.842264 17.8063 19.9481 0.452152 4.9075 -8.96586
lowerback 1.65588 2.69988 5.92122
upperback 0.236128 3.73442 3.45839
thorax -0.539301 1.85857 0.173637
lowerneck -21.525 1.6429 5.41827
upperneck 25.005 2.51412 -6.98335
head 11.949 0.735909 -3.12474
rclavicle -1.44057e-014 -9.14409e-015
rhumerus -34.809 -1.56164 -81.8899
rradius 33.6817
rwrist -7.57004
rhand -16.3054 -3.48216
rfingers 7.12502
rthumb 9.90554 -33.2291
lclavicle -1.44057e-014 -9.14409e-015
lhumerus -45.9344 9.92921 75.6712
lradius 34.9349
lwrist 10.8493
lhand -11.5337 -2.29505
lfingers 7.12502
lthumb 14.5063 27.1778
rfemur 11.3396 -1.36324 35.5075
rtibia 9.77026
rfoot -10.8902 -19.8222
rtoes -3.8265
lfemur -28.702 -2.29714 -9.33074
ltibia 22.6049
lfoot -15.0368 13.7652
ltoes -18.7695
1611
root 0.854324 17.8048 20.0018 0.620134 4.89957 -8.93114
lowerback 1.61259 2.62808 5.72646
upperback 0.149728 3.63721 3.44605
thorax -0.619184 1.80782 0.268817
lowerneck -21.3945 1.7772 5.65393
upperneck 24.8993 2.65971 -7.10842
head 11.8988 0.809798 -3.185
rclavicle -1.37658e-014 1.23246e-014
rhumerus -34.7968 -1.25802 -82.1163
rradius 33.7412
rwrist -7.52231
rhand -16.2992 -3.46829
rfingers 7.12502
rthumb 9.91148 -33.215
lclavicle -1.37658e-014 1.23246e-014
lhumerus -46.3653 10.3565 75.2431
lradius 34.964
lwrist 10.8249
lhand -11.5152 -2.26521
lfingers 7.12502
lthumb 14.5242 27.2064
rfemur 11.5362 -1.31575 35.4465
rtibia 9.42946
rfoot -10.8235 -19.7542
rtoes -3.89104
lfemur -28.7417 -2.17462 -9.41529
ltibia 22.6115
lfoot -14.9031 13.715
ltoes -18.9426
1612
root 0.86603 17.8054 20.0552 0.791692 4.93762 -8.87168
lowerback 1.54086 2.38296 5.38218
upperback 0.0255351 3.30655 3.43766
thorax -0.737788 1.64021 0.454374
lowerneck -20.9914 2.10217 6.24839
upperneck 24.7061 3.01324 -7.40704
head 11.7878 0.993917 -3.33498
rclavicle 1.0312e-014 2.05742e-014
rhumerus -34.7898 -0.573641 -82.6107
rradius 33.753
rwrist -7.49877
rhand -16.2937 -3.46629
rfingers 7.12502
rthumb 9.91684 -33.2127
lclavicle 1.0312e-014 2.05742e-014
lhumerus -47.0364 11.1093 74.5056
lradius 35.0242
lwrist 10.8137
lhand -11.5213 -2.31863
lfingers 7.12502
lthumb 14.5183 27.1534
rfemur 11.7328 -1.3118 35.356
rtibia 9.07269
rfoot -10.7506 -19.6614
rtoes -3.95529
lfemur -28.8203 -2.04078 -9.53574
ltibia 22.6257
lfoot -14.7314 13.578
ltoes -19.0808
1613
root 0.876921 17.8069 20.1079 0.964137 5.01655 -8.79095
lowerback 1.5257 2.44044 5.26372
upperback -0.0409379 3.38353 3.38971
thorax -0.799224 1.67717 0.468194
lowerneck -21.0518 2.03711 6.14979
upperneck 24.7038 2.93747 -7.35954
head 11.79 0.955542 -3.31259
rclavicle -7.45132e-014 1.49089e-015
rhumerus -34.7758 -0.705571 -82.5828
rradius 33.82
rwrist -7.51042
rhand -16.2722 -3.50137
rfingers 7.12502
rthumb 9.93754 -33.2468
lclavicle -7.45132e-014 1.49089e-015
lhumerus -47.1757 11.1941 74.3432
lradius 34.9079
lwrist 10.711
lhand -11.5527 -2.42164
lfingers 7.12502
lthumb 14.488 27.0526
rfemur 11.9122 -1.34814 35.2436
rtibia 8.73611
rfoot -10.6804 -19.5507
rtoes -4.03504
lfemur -28.9256 -1.90064 -9.68366
ltibia 22.6502
lfoot -14.5368 13.3724
ltoes -19.1812
1614
root 0.887085 17.8091 20.1605 1.13528 5.14006 -8.6682
lowerback 1.51841 2.43115 5.06219
upperback -0.208398 3.37641 3.32638
thorax -0.975422 1.6695 0.510181
lowerneck -20.7106 2.01092 6.19552
upperneck 24.6309 2.90364 -7.37266
head 11.6926 0.949455 -3.32699
rclavicle -2.05742e-014 -3.43897e-014
rhumerus -34.9571 -0.720099 -82.6497
rradius 33.8764
rwrist -7.51872
rhand -16.2613 -3.53996
rfingers 7.12502
rthumb 9.94802 -33.2849
lclavicle -2.05742e-014 -3.43897e-014
lhumerus -47.5635 11.3092 74.0361
lradius 34.7961
lwrist 10.6166
lhand -11.5899 -2.53595
lfingers 7.12502
lthumb 14.4522 26.9408
rfemur 12.0688 -1.42706 35.0871
rtibia 8.44828
rfoot -10.6273 -19.4337
rtoes -4.13901
lfemur -29.0387 -1.75301 -9.88877
ltibia 22.6876
lfoot -14.331 13.1137
ltoes -19.2513
1615
root 0.896486 17.8112 20.2125 1.29585 5.30161 -8.54154
lowerback 1.50847 2.19027 4.66916
upperback -0.371009 3.0564 3.29228
thorax -1.16423 1.50752 0.694593
lowerneck -20.2212 2.25304 6.69392
upperneck 24.4777 3.16916 -7.61354
head 11.5728 1.09467 -3.45442
rclavicle -9.22796e-015 -1.92821e-014
rhumerus -35.0285 -0.213487 -83.0653
rradius 33.8587
rwrist -7.51116
rhand -16.2823 -3.57774
rfingers 7.12502
rthumb 9.92778 -33.3236
lclavicle -9.22796e-015 -1.92821e-014
lhumerus -48.174 11.9061 73.3497
lradius 34.7335
lwrist 10.5576
lhand -11.615 -2.61101
lfingers 7.12502
lthumb 14.428 26.8675
rfemur 12.206 -1.54796 34.9276
rtibia 8.20881
rfoot -10.5873 -19.3101
rtoes -4.27069
lfemur -29.1521 -1.60595 -10.1045
ltibia 22.7448
lfoot -14.124 12.8132
ltoes -19.3118
1616
root 0.905188 17.8128 20.264 1.4394 5.49415 -8.41889
lowerback 1.54736 2.09415 4.39202
upperback -0.495644 2.93208 3.25024
thorax -1.32831 1.44392 0.802997
lowerneck -19.9734 2.30933 6.85896
upperneck 24.3862 3.22948 -7.7006
head 11.499 1.13119 -3.50239
rclavicle 2.36243e-014 5.11871e-015
rhumerus -35.0832 -0.111486 -83.2082
rradius 33.8642
rwrist -7.48201
rhand -16.3087 -3.60366
rfingers 7.12502
rthumb 9.9023 -33.3508
lclavicle 2.36243e-014 5.11871e-015
lhumerus -48.5013 12.1957 72.9612
lradius 34.5848
lwrist 10.4546
lhand -11.6344 -2.65214
lfingers 7.12502
lthumb 14.4093 26.8277
rfemur 12.342 -1.70395 34.7742
rtibia 7.99272
rfoot -10.5486 -19.1821
rtoes -4.41954
lfemur -29.2581 -1.48035 -10.3148
ltibia 22.8257
lfoot -13.9256 12.4836
ltoes -19.3771
1617
root 0.915181 17.8143 20.3156 1.57103 5.73366 -8.30709
lowerback 1.57402 1.87726 4.07619
upperback -0.628746 2.64469 3.20939
thorax -1.49713 1.29975 0.939273
lowerneck -19.5837 2.49548 7.28036
upperneck 24.2193 3.43034 -7.90791
head 11.3892 1.24291 -3.61501
rclavicle -4.98437e-014 -2.81777e-014
rhumerus -35.1311 0.231161 -83.5345
rradius 33.8442
rwrist -7.43082
rhand -16.3326 -3.62105
rfingers 7.12502
rthumb 9.87929 -33.3693
lclavicle -4.98437e-014 -2.81777e-014
lhumerus -48.9616 12.6921 72.3656
lradius 34.4582
lwrist 10.3783
lhand -11.6402 -2.65022
lfingers 7.12502
lthumb 14.4037 26.83
rfemur 12.4996 -1.90621 34.6221
rtibia 7.74515
rfoot -10.4793 -19.0486
rtoes -4.59959
lfemur -29.3688 -1.39382 -10.5212
ltibia 22.9401
lfoot -13.7584 12.1008
ltoes -19.4711
